<?xml version="1.0" standalone="no"?><!DOCTYPE svg PUBLIC "-//W3C//DTD SVG 1.1//EN" "http://www.w3.org/Graphics/SVG/1.1/DTD/svg11.dtd"><svg t="1645069462402" class="icon" viewBox="0 0 1024 1024" version="1.1" xmlns="http://www.w3.org/2000/svg" p-id="2505" xmlns:xlink="http://www.w3.org/1999/xlink" width="200" height="200"><defs><style type="text/css"></style></defs><path d="M512 149.942857L421.522286 240.493714A63.926857 63.926857 0 1 0 512 330.971429l90.477714-90.477715a128 128 0 0 1 181.028572 181.028572L693.028571 512a63.926857 63.926857 0 1 0 90.477715 90.477714L874.057143 512A256 256 0 0 0 512 149.942857z m0 543.085714l-90.477714 90.477715a128 128 0 0 1-181.028572-181.028572L330.971429 512a64 64 0 1 0-90.477715-90.477714L149.942857 512A256 256 0 0 0 512 874.057143l90.477714-90.550857A63.926857 63.926857 0 1 0 512 693.028571z m-135.753143-45.275428a63.926857 63.926857 0 0 0 90.477714 0l181.028572-181.028572A63.926857 63.926857 0 1 0 557.348571 376.246857L376.246857 557.275429a63.926857 63.926857 0 0 0 0 90.477714z" p-id="2506"></path></svg>